# xmcd CD database file
#
# Track frame offsets:
#	150
#	11500
#	43049
#	65951
#	103153
#	127787
#	152065
#	185949
#
# Disc length: 2932 seconds
#
# Revision: 0
# Processed by: cddbd v1.5.2PL0 Copyright (c) Steve Scherf et al.
# Submitted via: CDex 1.51
#
DISCID=6e0b7208
DTITLE=The Bobby Floyd Trio - Setting The Standards
DYEAR=2001
DGENRE=Jazz
TTITLE0=Warm-Up
TTITLE1=Poinciana
TTITLE2=Rhythm-A-Ning
TTITLE3=Mercy Mercy Mercy
TTITLE4=C-Jam Blues
TTITLE5=Stella By Starlight
TTITLE6=Stella By Starlight
TTITLE7=Body And Soul
EXTD=YEAR: 2001
EXTT0=
EXTT1=
EXTT2=
EXTT3=
EXTT4=
EXTT5=
EXTT6=
EXTT7=
PLAYORDER=
